<?xml version="1.0" encoding="iso-8859-1"?>
<!-- Uploaded to: SVG Repo, www.svgrepo.com, Generator: SVG Repo Mixer Tools -->
<svg fill="#000000" height="800px" width="800px" version="1.1" id="Layer_1" xmlns="http://www.w3.org/2000/svg" xmlns:xlink="http://www.w3.org/1999/xlink" 
	 viewBox="0 0 511.999 511.999" xml:space="preserve">
<g>
	<g>
		<path d="M464.36,58.151H47.64C21.37,58.151,0,79.522,0,105.79v80.155v140.109v80.155c0,26.268,21.37,47.64,47.64,47.64H464.36
			c26.268,0,47.639-21.37,47.639-47.64v-80.155V185.945V105.79C512,79.522,490.628,58.151,464.36,58.151z M264.201,194.706
			c30.241,4.026,53.653,29.969,53.653,61.294s-23.412,57.268-53.653,61.294V194.706z M16.402,194.145h51.98
			c34.106,0,61.854,27.748,61.854,61.854c0,34.106-27.748,61.854-61.854,61.854h-51.98V194.145z M247.799,317.294
			c-30.242-4.026-53.653-29.969-53.653-61.294c0-31.324,23.412-57.268,53.653-61.294V317.294z M247.799,178.175
			c-39.31,4.112-70.054,37.443-70.054,77.825s30.745,73.711,70.054,77.825v103.622H47.64c-17.225,0-31.238-14.014-31.238-31.238
			v-71.954h51.98c43.15,0,78.255-35.105,78.255-78.255s-35.105-78.255-78.255-78.255h-51.98V105.79
			c0-17.224,14.013-31.237,31.238-31.237h200.159V178.175z M495.597,406.208c0.001,17.225-14.013,31.239-31.237,31.239H264.201
			V333.825c39.31-4.112,70.055-37.443,70.055-77.825s-30.745-73.711-70.055-77.825V74.553H464.36
			c17.224,0,31.237,14.013,31.237,31.237v71.954h-51.98c-43.15,0-78.255,35.105-78.255,78.255s35.105,78.255,78.255,78.255h51.98
			V406.208z M495.598,317.854h-51.98c-34.106,0-61.854-27.748-61.854-61.854c0-34.106,27.748-61.854,61.854-61.854h51.98V317.854z"
			/>
	</g>
</g>
</svg>